<svg width="30" height="30" viewBox="0 0 30 30" fill="none" xmlns="http://www.w3.org/2000/svg">
<path d="M29.56 7.46984C29.3481 5.68675 28.5425 4.0268 27.2728 2.75709C26.003 1.48738 24.3431 0.681752 22.56 0.469844C17.5573 -0.120156 12.5027 -0.120156 7.5 0.469844C5.7169 0.681752 4.05695 1.48738 2.78724 2.75709C1.51753 4.0268 0.711903 5.68675 0.499996 7.46984C-0.090005 12.4725 -0.090005 17.5272 0.499996 22.5298C0.711903 24.3129 1.51753 25.9729 2.78724 27.2426C4.05695 28.5123 5.7169 29.3179 7.5 29.5298C12.5027 30.1198 17.5573 30.1198 22.56 29.5298C24.3431 29.3179 26.003 28.5123 27.2728 27.2426C28.5425 25.9729 29.3481 24.3129 29.56 22.5298C30.15 17.5272 30.15 12.4725 29.56 7.46984ZM20.87 15.4698L27.63 8.37984C28.0779 12.7016 28.0779 17.0581 27.63 21.3798L20.87 15.4698ZM7.7 2.41984C12.5506 1.85984 17.4494 1.85984 22.3 2.41984C23.3435 2.54396 24.3361 2.93997 25.1785 3.56825C26.0209 4.19652 26.6835 5.03503 27.1 5.99984L17.57 15.9998H12.43L2.9 5.99984C3.31649 5.03503 3.97909 4.19652 4.82147 3.56825C5.66385 2.93997 6.65648 2.54396 7.7 2.41984ZM2.34 21.4198C1.89207 17.0981 1.89207 12.7416 2.34 8.41984L9.1 15.5098L2.34 21.4198ZM22.34 27.6298C17.4894 28.1898 12.5906 28.1898 7.74 27.6298C6.63388 27.4993 5.58592 27.0635 4.71345 26.3712C3.84098 25.6789 3.17844 24.7574 2.8 23.7098L10.55 16.9298L11.32 17.7398C11.5059 17.9089 11.7487 18.0017 12 17.9998H18C18.1347 17.9993 18.2679 17.9716 18.3916 17.9183C18.5154 17.8651 18.6271 17.7873 18.72 17.6898L19.49 16.8798L27.24 23.6598C26.8616 24.7074 26.199 25.6289 25.3265 26.3212C24.4541 27.0135 23.4061 27.4493 22.3 27.5798L22.34 27.6298Z" fill="#F2F2F2"/>
</svg>
