<svg width="58" height="58" viewBox="0 0 58 58" fill="none" xmlns="http://www.w3.org/2000/svg">
<g clip-path="url(#clip0_42_56)">
<path d="M29 0C13.0047 0 0 13.0047 0 29C0 44.9953 13.0047 58 29 58C44.9953 58 58 44.9953 58 29C58 13.0047 44.9953 0 29 0ZM29 55.1C14.5906 55.1 2.9 43.4094 2.9 29C2.9 14.5906 14.5906 2.9 29 2.9C43.4094 2.9 55.1 14.5906 55.1 29C55.1 43.4094 43.4094 55.1 29 55.1ZM22.2938 17.4L33.35 29L22.2938 40.6H28.4109L39.15 29L28.4109 17.4H22.2938Z" fill="#BF5934"/>
</g>
<defs>
<clipPath id="clip0_42_56">
<rect width="58" height="58" fill="white"/>
</clipPath>
</defs>
</svg>
